<?xml version="1.0" encoding="UTF-8" standalone="no"?>
<svg
   xmlns:dc="http://purl.org/dc/elements/1.1/"
   xmlns:cc="http://creativecommons.org/ns#"
   xmlns:rdf="http://www.w3.org/1999/02/22-rdf-syntax-ns#"
   xmlns:svg="http://www.w3.org/2000/svg"
   xmlns="http://www.w3.org/2000/svg"
   xmlns:sodipodi="http://sodipodi.sourceforge.net/DTD/sodipodi-0.dtd"
   xmlns:inkscape="http://www.inkscape.org/namespaces/inkscape"
   id="interiorView"
   width="48"
   height="48"
   viewBox="0 0 48 48"
   version="1.1"
   class="camera"
   data-cam-id="1"
   style="height: 35px;"
   sodipodi:docname="02.svg"
   inkscape:version="1.0.2 (e86c870879, 2021-01-15)">
  <metadata
     id="metadata11">
    <rdf:RDF>
      <cc:Work
         rdf:about="">
        <dc:format>image/svg+xml</dc:format>
        <dc:type
           rdf:resource="http://purl.org/dc/dcmitype/StillImage" />
      </cc:Work>
    </rdf:RDF>
  </metadata>
  <defs
     id="defs9" />
  <sodipodi:namedview
     pagecolor="#ffffff"
     bordercolor="#666666"
     borderopacity="1"
     objecttolerance="10"
     gridtolerance="10"
     guidetolerance="10"
     inkscape:pageopacity="0"
     inkscape:pageshadow="2"
     inkscape:window-width="2560"
     inkscape:window-height="1026"
     id="namedview7"
     showgrid="false"
     inkscape:zoom="15.354167"
     inkscape:cx="24"
     inkscape:cy="24"
     inkscape:window-x="1366"
     inkscape:window-y="29"
     inkscape:window-maximized="1"
     inkscape:current-layer="interiorView" />
  <title
     id="title2">
                            test-drive-large
                        </title>
  <path
     d="M23.5,44.5 C34.545695,44.5 43.5,35.545695 43.5,24.5 C43.5,13.454305 34.545695,4.5 23.5,4.5 C12.454305,4.5 3.5,13.454305 3.5,24.5 C3.5,35.545695 12.454305,44.5 23.5,44.5 Z M23.5,41.5 C27.6881245,41.5 31.5225212,39.9855113 34.4854041,37.4743201 C38.1646435,34.3559808 40.5,29.7007162 40.5,24.5 C40.5,15.1111593 32.8888407,7.5 23.5,7.5 C14.1111593,7.5 6.5,15.1111593 6.5,24.5 C6.5,29.7118989 8.84541031,34.3759979 12.538348,37.494414 C15.4979577,39.9935882 19.3230582,41.5 23.5,41.5 Z M30.0766572,29.0766572 L36.5,35.5 L30.0766572,29.0766572 Z M28.0941322,32.0941322 L34,38 L28.0941322,32.0941322 Z M18.9111915,32.0888085 L13,38 M16.9416504,29.0624695 L10.5,35.5 M16.5,24.5 L6.5,24.5 M40.5,24.5 L30.5,24.5 M7.25431729,19.5 C7.25431729,19.5 10.8362115,19.5 18,19.5 M39.752308,19.5 L29,19.5 L39.752308,19.5 Z M23.5,33.5803114 C27.918278,33.5803114 30.5,30.5803114 30.5,26.0803114 C30.5,23.5803114 30.5,20.5803114 28.5,19.2803122 C26.8974467,18.2386532 20.0987283,18.2411394 18.5,19.2803122 C16.5,20.5803114 16.5,23.5803114 16.5,26.0803114 C16.5,30.5803114 19.081722,33.5803114 23.5,33.5803114 Z"
     stroke-width="1"
     fill="none"
     fill-rule="evenodd"
     id="path4"
     style="stroke:#4d4d4d" />
</svg>
