<?xml version="1.0" encoding="UTF-8" standalone="no"?>
<svg
   xmlns:dc="http://purl.org/dc/elements/1.1/"
   xmlns:cc="http://creativecommons.org/ns#"
   xmlns:rdf="http://www.w3.org/1999/02/22-rdf-syntax-ns#"
   xmlns:svg="http://www.w3.org/2000/svg"
   xmlns="http://www.w3.org/2000/svg"
   xmlns:sodipodi="http://sodipodi.sourceforge.net/DTD/sodipodi-0.dtd"
   xmlns:inkscape="http://www.inkscape.org/namespaces/inkscape"
   width="48"
   height="48"
   viewBox="0 0 48 48"
   version="1.1"
   class="animation svgicon"   
   style="height: 35px;"
   sodipodi:docname="03.svg"
   inkscape:version="1.0.2 (e86c870879, 2021-01-15)">
  <metadata
     id="metadata21">
    <rdf:RDF>
      <cc:Work
         rdf:about="">
        <dc:format>image/svg+xml</dc:format>
        <dc:type
           rdf:resource="http://purl.org/dc/dcmitype/StillImage" />
      </cc:Work>
    </rdf:RDF>
  </metadata>
  <defs
     id="defs19" />
  <sodipodi:namedview
     pagecolor="#ffffff"
     bordercolor="#666666"
     borderopacity="1"
     objecttolerance="10"
     gridtolerance="10"
     guidetolerance="10"
     inkscape:pageopacity="0"
     inkscape:pageshadow="2"
     inkscape:window-width="2560"
     inkscape:window-height="1026"
     id="namedview17"
     showgrid="false"
     inkscape:zoom="15.354167"
     inkscape:cx="24"
     inkscape:cy="24"
     inkscape:window-x="1366"
     inkscape:window-y="29"
     inkscape:window-maximized="1"
     inkscape:current-layer="openDoor" />
  <title
     id="title2">door</title>
  <path
     d="M5.5,42.2V22C12.3,10.7,18.6,8.1,18.6,8.1s15.9-1.3,23.7,0v34.1C42.3,42.2,5.5,42.2,5.5,42.2z"
     stroke-width="1"
     fill="none"
     fill-rule="evenodd"
     id="path4"
     style="stroke:#4d4d4d" />
  <line
     x1="42.3"
     y1="22"
     x2="10.9"
     y2="22"
     stroke-width="1"
     fill="none"
     fill-rule="evenodd"
     id="line6"
     style="stroke:#4d4d4d" />
  <path
     d="M32.7,24.9c3-0.9,5.9,0,5.9,0v1.6c-3,1.3-5.9,0-5.9,0V24.9z"
     stroke-width="1"
     fill="none"
     fill-rule="evenodd"
     id="path8"
     style="stroke:#4d4d4d" />
  <path
     d="M39,36.9l-20.6,0.4c-5.1,0-9.4,1.9-9.4,1.9"
     stroke-width="1"
     fill="none"
     fill-rule="evenodd"
     id="path10"
     style="stroke:#4d4d4d" />
  <path
     d="M7.6,21l2-2.2c2.1-1.5,7.2-2,8.7-0.1c0,0,0.7,1.4,0,3.2h-7.4v1.8H7.6V21z"
     stroke-width="1"
     fill="none"
     fill-rule="evenodd"
     id="path12"
     style="stroke:#4d4d4d" />
  <line
     x1="7.6"
     y1="22"
     x2="5.5"
     y2="22"
     stroke-width="1"
     fill="none"
     fill-rule="evenodd"
     id="line14"
     style="stroke:#4d4d4d" />
</svg>
