<?xml version="1.0" encoding="UTF-8" standalone="no"?>
<svg
   xmlns:dc="http://purl.org/dc/elements/1.1/"
   xmlns:cc="http://creativecommons.org/ns#"
   xmlns:rdf="http://www.w3.org/1999/02/22-rdf-syntax-ns#"
   xmlns:svg="http://www.w3.org/2000/svg"
   xmlns="http://www.w3.org/2000/svg"
   xmlns:sodipodi="http://sodipodi.sourceforge.net/DTD/sodipodi-0.dtd"
   xmlns:inkscape="http://www.inkscape.org/namespaces/inkscape"
   fill="#000000"
   width="800px"
   height="800px"
   viewBox="0 0 512 512"
   id="Layer_1"
   version="1.1"
   xml:space="preserve"
   sodipodi:docname="arrow.svg"
   inkscape:version="1.0.2 (e86c870879, 2021-01-15)"><metadata
     id="metadata9"><rdf:RDF><cc:Work
         rdf:about=""><dc:format>image/svg+xml</dc:format><dc:type
           rdf:resource="http://purl.org/dc/dcmitype/StillImage" /></cc:Work></rdf:RDF></metadata><defs
     id="defs7" /><sodipodi:namedview
     pagecolor="#ffffff"
     bordercolor="#666666"
     borderopacity="1"
     objecttolerance="10"
     gridtolerance="10"
     guidetolerance="10"
     inkscape:pageopacity="0"
     inkscape:pageshadow="2"
     inkscape:window-width="2560"
     inkscape:window-height="1026"
     id="namedview5"
     showgrid="false"
     inkscape:zoom="0.92125"
     inkscape:cx="142.1981"
     inkscape:cy="400"
     inkscape:window-x="1366"
     inkscape:window-y="29"
     inkscape:window-maximized="1"
     inkscape:current-layer="Layer_1"
     inkscape:document-rotation="0" /><path
     d="M 168.98445,50.890407 C 55.684452,98.590407 2.4844524,229.19041 50.284452,342.49041 c 47.8,113.3 178.299998,166.4 291.599998,118.7 113.3,-47.7 166.4,-178.3 118.6,-291.6 -34.7,-82.500003 -115.6,-136.200003 -205.1,-136.200003 -29.7,0 -59.1,5.9 -86.4,17.5 z m 278.4,204.500003 c 0,106 -86,192 -192,192 -106,0 -191.999998,-86 -191.999998,-192 0,-106 85.999998,-192.000003 191.999998,-192.000003 106,0 192,86.000003 192,192.000003 z m -307.3,-28 115.3,-115.3 115.3,115.3 -21.2,21.2 -79.1,-79.2 v 208.2 h -30 v -208.2 l -79.1,79.1 z"
     id="path2"
     style="fill:#ec1b23;fill-opacity:1" /></svg>
