<?xml version="1.0" encoding="UTF-8" standalone="no"?>
<svg
   xmlns:dc="http://purl.org/dc/elements/1.1/"
   xmlns:cc="http://creativecommons.org/ns#"
   xmlns:rdf="http://www.w3.org/1999/02/22-rdf-syntax-ns#"
   xmlns:svg="http://www.w3.org/2000/svg"
   xmlns="http://www.w3.org/2000/svg"
   xmlns:sodipodi="http://sodipodi.sourceforge.net/DTD/sodipodi-0.dtd"
   xmlns:inkscape="http://www.inkscape.org/namespaces/inkscape"
   width="200"
   height="200"
   viewBox="-2 -2 24 24"
   fill="none"
   version="1.1"
   id="svg14"
   sodipodi:docname="icon-ar.svg"
   inkscape:version="1.0.2 (e86c870879, 2021-01-15)">
  <metadata
     id="metadata20">
    <rdf:RDF>
      <cc:Work
         rdf:about="">
        <dc:format>image/svg+xml</dc:format>
        <dc:type
           rdf:resource="http://purl.org/dc/dcmitype/StillImage" />
        <dc:title></dc:title>
      </cc:Work>
    </rdf:RDF>
  </metadata>
  <defs
     id="defs18" />
  <sodipodi:namedview
     pagecolor="#ffffff"
     bordercolor="#666666"
     borderopacity="1"
     objecttolerance="10"
     gridtolerance="10"
     guidetolerance="10"
     inkscape:pageopacity="0"
     inkscape:pageshadow="2"
     inkscape:window-width="2560"
     inkscape:window-height="1026"
     id="namedview16"
     showgrid="false"
     fit-margin-top="0"
     fit-margin-left="0"
     fit-margin-right="0"
     fit-margin-bottom="0"
     inkscape:zoom="30.708333"
     inkscape:cx="10"
     inkscape:cy="10"
     inkscape:window-x="1366"
     inkscape:window-y="29"
     inkscape:window-maximized="1"
     inkscape:current-layer="svg14" />

      <rect x="-1.5" y="-1.5" width="23" height="23" rx="4" fill="#131212" fill-opacity="0.2" style="mix-blend-mode:multiply" shape-rendering="crispEdges" />
     
  <path
     d="M 16,2.25 C 16,1.00736 14.9926,0 13.75,0 H 6.25 C 5.00736,0 4,1.00736 4,2.25 V 3 H 5.5 V 2.25 C 5.5,1.83579 5.83579,1.5 6.25,1.5 h 7.5 c 0.4142,0 0.75,0.33579 0.75,0.75 V 3 H 16 Z"
     fill="#ffffff"
     id="path2" />
  <path
     d="M 15.5,8.7511 C 15.4994,8.3369 15.8347,8.0006 16.2489,8 16.6631,7.9994 16.9994,8.3347 17,8.7489 l 0.0038,2.5 c 6e-4,0.4142 -0.3347,0.7505 -0.7489,0.7511 -0.4142,6e-4 -0.7505,-0.3347 -0.7511,-0.7489 z"
     fill="#ffffff"
     id="path4" />
  <path
     fill-rule="evenodd"
     clip-rule="evenodd"
     d="m 8.6276,12.1899 c 0,-0.0298 -0.0025,-0.0596 -0.0075,-0.0894 C 8.6102,12.0558 8.5978,12.0111 8.5829,11.9664 L 8.5606,11.8994 7.01126,8.0857 6.96657,7.96656 C 6.95664,7.93676 6.94423,7.90945 6.92933,7.88462 6.91443,7.8598 6.90202,7.83 6.89209,7.79524 6.86726,7.73069 6.83995,7.67358 6.81016,7.62393 6.77043,7.56434 6.73319,7.5122 6.69843,7.46751 6.66863,7.42778 6.62643,7.39551 6.5718,7.37068 6.50228,7.34585 6.42035,7.33344 6.326,7.33344 6.23662,7.33344 6.15717,7.34585 6.08765,7.37068 6.03303,7.39551 5.99082,7.42778 5.96103,7.46751 L 5.90144,7.54199 C 5.88157,7.56682 5.86419,7.59413 5.8493,7.62393 5.8195,7.67358 5.79219,7.73069 5.76736,7.79524 5.75743,7.83 5.74502,7.8598 5.73012,7.88462 5.71522,7.90945 5.70281,7.93676 5.69288,7.96656 L 5.64819,8.0857 4.0989,11.8994 4.07655,11.9664 c -0.01489,0.0447 -0.02731,0.0894 -0.03724,0.1341 l -0.0149,0.0894 v 0.0893 c 0,0.0596 0.01738,0.1143 0.05214,0.1639 0.0149,0.0248 0.03476,0.0497 0.05959,0.0745 0.02483,0.0199 0.05462,0.0372 0.08938,0.0521 0.12415,0.0696 0.25574,0.0944 0.39477,0.0745 0.06952,-0.0198 0.13159,-0.0521 0.18622,-0.0968 0.00993,-0.0099 0.01738,-0.0149 0.02234,-0.0149 0.00497,-0.005 0.00993,-0.0124 0.0149,-0.0224 l 0.0149,-0.0149 c 0.00496,-0.0099 0.01241,-0.0173 0.02234,-0.0223 0.02483,-0.0248 0.04469,-0.0472 0.05959,-0.067 0.0149,-0.0249 0.02731,-0.0497 0.03724,-0.0745 0.0149,-0.0248 0.02731,-0.0472 0.03725,-0.0671 L 5.05976,12.1899 C 5.06969,12.17 5.07714,12.1526 5.0821,12.1377 L 5.1119,12.0781 C 5.12183,12.0583 5.12679,12.0384 5.12679,12.0185 5.13176,11.9987 5.13921,11.9788 5.14914,11.959 L 5.30556,11.594 C 5.64819,11.5989 5.98834,11.6014 6.326,11.6014 6.66863,11.5965 7.01126,11.594 7.3539,11.594 l 0.15641,0.365 c 0.00497,0.0347 0.01738,0.0744 0.03725,0.1191 0.00496,0.0199 0.01241,0.0398 0.02234,0.0596 0.00993,0.0149 0.01987,0.0323 0.0298,0.0522 0.01489,0.0248 0.02731,0.0496 0.03724,0.0744 0.0149,0.0199 0.02731,0.0423 0.03724,0.0671 l 0.04469,0.0745 c 0.0149,0.0198 0.03476,0.0422 0.05959,0.067 0.00993,0.005 0.01738,0.0124 0.02235,0.0223 l 0.01489,0.0149 c 0.00497,0.01 0.00993,0.0174 0.0149,0.0224 0.00497,0 0.01241,0.005 0.02235,0.0149 0.05462,0.0447 0.11669,0.077 0.18625,0.0968 0.139,0.0199 0.2706,-0.0049 0.3947,-0.0745 0.0348,-0.0149 0.0646,-0.0322 0.0894,-0.0521 0.0248,-0.0248 0.0447,-0.0497 0.0596,-0.0745 0.0348,-0.0496 0.0521,-0.1043 0.0521,-0.1639 0,-0.0347 -0.0024,-0.0645 -0.0074,-0.0893 z M 6.65374,9.8287 c 0.06952,0.1539 0.13655,0.3029 0.20111,0.4469 l 0.13407,0.3277 H 5.67053 l 0.13408,-0.3277 c 0.06455,-0.144 0.1291,-0.293 0.19366,-0.4469 0.06952,-0.154 0.14152,-0.3104 0.216,-0.4693 L 6.27386,9.2254 C 6.29373,9.1757 6.31111,9.1285 6.326,9.0838 6.34586,9.1285 6.36573,9.1757 6.38559,9.2254 l 0.05959,0.134 c 0.07448,0.1589 0.144,0.3153 0.20856,0.4693 z"
     fill="#ffffff"
     id="path6" />
  <path
     fill-rule="evenodd"
     clip-rule="evenodd"
     d="m 13.0611,12.4208 c 0.0149,-0.0447 0.0198,-0.0919 0.0149,-0.1416 -0.01,-0.0446 -0.0224,-0.1018 -0.0373,-0.1713 -0.0149,-0.0248 -0.0298,-0.0521 -0.0447,-0.0819 -0.0099,-0.0298 -0.0223,-0.0571 -0.0372,-0.0819 -0.0099,-0.0249 -0.0223,-0.0497 -0.0372,-0.0745 -0.0149,-0.0249 -0.0274,-0.0472 -0.0373,-0.0671 l -0.067,-0.1191 -0.6853,-1.378 c 0.0099,-0.005 0.0224,-0.0075 0.0373,-0.0075 C 12.1871,10.293 12.202,10.2855 12.212,10.2756 12.49,10.1664 12.6911,10 12.8153,9.7765 12.9444,9.5531 13.0089,9.3073 13.0089,9.0391 13.0089,8.8107 12.9642,8.5848 12.8749,8.3613 12.7855,8.1379 12.6539,7.9467 12.4801,7.78779 12.4255,7.73814 12.351,7.686 12.2566,7.63137 12.1822,7.59662 12.1002,7.56186 12.0108,7.5271 11.8718,7.47247 11.7203,7.43523 11.5565,7.41537 11.3976,7.39054 11.2461,7.37316 11.1021,7.36323 10.8836,7.3533 10.6651,7.34833 10.4467,7.34833 10.2282,7.34833 10.0072,7.34585 9.7837,7.34088 9.6646,7.33592 9.5727,7.34585 9.5081,7.37068 9.4486,7.39054 9.4039,7.41537 9.3741,7.44516 9.3393,7.46999 9.3145,7.5122 9.2996,7.57179 9.2698,7.62641 9.2524,7.68103 9.2474,7.73565 9.2425,7.76048 9.2375,7.79028 9.2325,7.82504 v 4.32016 c 0,0.0447 0.0075,0.0918 0.0224,0.1415 0.0099,0.0248 0.0174,0.0521 0.0223,0.0819 l 0.0298,0.0745 c 0.01,0.0248 0.0224,0.0497 0.0373,0.0745 0.0149,0.0199 0.0323,0.0372 0.0521,0.0521 0.0596,0.0348 0.1217,0.0596 0.1862,0.0745 0.149,0.0298 0.2756,0.0124 0.3799,-0.0521 0.0596,-0.0397 0.1068,-0.0869 0.1415,-0.1415 0.0348,-0.0596 0.0571,-0.1167 0.0671,-0.1714 0.0049,-0.0347 0.0074,-0.072 0.0074,-0.1117 0.005,-0.0397 0.0075,-0.072 0.0075,-0.0968 V 11.959 c 0.0049,-0.0348 0.0074,-0.072 0.0074,-0.1118 v -1.3481 h 0.1415 c 0.0993,-0.005 0.1937,-0.005 0.2831,0 0.0943,0.0049 0.1936,0.0024 0.2979,-0.0075 0.0397,-0.005 0.0795,-0.0074 0.1192,-0.0074 0.0397,-0.005 0.0794,-0.0075 0.1192,-0.0075 l 0.8267,1.5716 c 0.0249,0.0547 0.0522,0.1068 0.082,0.1565 0.0298,0.0496 0.0571,0.0943 0.0819,0.134 0.0546,0.0844 0.1242,0.1614 0.2086,0.2309 0.0596,0.0547 0.1291,0.0845 0.2085,0.0894 0.0398,0.0099 0.077,0.0099 0.1118,0 0.0397,-0.0049 0.0794,-0.0124 0.1191,-0.0223 0.0646,-0.0249 0.1192,-0.0522 0.1639,-0.082 0.0248,-0.0198 0.0447,-0.0397 0.0596,-0.0596 0.0199,-0.0198 0.0347,-0.0446 0.0447,-0.0744 z M 11.4671,9.5829 C 11.3876,9.6127 11.3032,9.6276 11.2139,9.6276 H 10.1934 V 8.8827 c 0.005,-0.2135 0.005,-0.4221 0,-0.6257 h 0.4842 c 0.1738,0 0.3327,0.005 0.4767,0.0149 0.2433,0.01 0.4394,0.077 0.5884,0.2012 0.149,0.1191 0.2135,0.3029 0.1937,0.5511 -0.005,0.0845 -0.0298,0.1639 -0.0745,0.2384 -0.0447,0.0695 -0.1018,0.1316 -0.1713,0.1862 -0.0646,0.0546 -0.1391,0.0993 -0.2235,0.1341 z"
     fill="#ffffff"
     id="path8" />
  <path
     fill-rule="evenodd"
     clip-rule="evenodd"
     d="M 2.25,4 C 1.00736,4 0,5.0074 0,6.25 v 7.5 C 0,14.9926 1.00736,16 2.25,16 h 15.5 C 18.9926,16 20,14.9926 20,13.75 V 6.25 C 20,5.0074 18.9926,4 17.75,4 Z m 0,10.5 C 1.83579,14.5 1.5,14.1642 1.5,13.75 V 6.25 C 1.5,5.8358 1.83579,5.5 2.25,5.5 h 15.5 c 0.4142,0 0.75,0.3358 0.75,0.75 v 7.5 c 0,0.4142 -0.3358,0.75 -0.75,0.75 z"
     fill="#ffffff"
     id="path10" />
  <path
     d="m 4,17 v 0.75 C 4,18.9926 5.00736,20 6.25,20 h 7.5 C 14.9926,20 16,18.9926 16,17.75 V 17 h -1.5 v 0.75 c 0,0.4142 -0.3358,0.75 -0.75,0.75 H 6.25 C 5.83579,18.5 5.5,18.1642 5.5,17.75 V 17 Z"
     fill="#ffffff"
     id="path12" />
</svg>
